<svg width="23" height="23" viewBox="0 0 23 23" fill="none" xmlns="http://www.w3.org/2000/svg">
<path fill-rule="evenodd" clip-rule="evenodd" d="M13.7337 0.593366C14.5538 0.203764 15.4404 0 16.3411 0C17.2418 0 18.1285 0.203764 18.9486 0.593366C19.7679 0.982617 20.5002 1.54732 21.1089 2.24554C21.7175 2.94304 22.1925 3.76206 22.5142 4.65215C22.8359 5.5424 23 6.49177 23 7.44731C23 8.40284 22.8359 9.35221 22.5142 10.2425C22.1925 11.1327 21.7173 11.9519 21.1085 12.6495L12.4627 22.5621C12.22 22.8403 11.8689 23 11.4997 23C11.1306 23 10.7794 22.8403 10.5368 22.5621L1.89075 12.6493C0.66467 11.2436 0 9.37016 0 7.44731C0 5.52445 0.66467 3.65104 1.89075 2.24532C3.12168 0.834036 4.83168 0.000600065 6.65835 0.000600065C8.48503 0.000600065 10.195 0.834035 11.426 2.24532C11.452 2.27516 11.4766 2.30619 11.4997 2.3383C11.5228 2.30627 11.5474 2.27531 11.5733 2.24554C12.182 1.54733 12.9143 0.982617 13.7337 0.593366ZM16.3411 2.55556C15.8286 2.55556 15.3158 2.67104 14.8303 2.90169C14.3674 3.1216 13.9337 3.44427 13.5563 3.8611L12.5721 5.38003C12.3365 5.74353 11.9329 5.96296 11.4997 5.96296C11.0666 5.96296 10.6629 5.74353 10.4274 5.38003L9.44324 3.8612C8.66381 3.00058 7.66118 2.55616 6.65835 2.55616C5.631 2.55616 4.60385 3.0226 3.81667 3.92511C3.02465 4.83318 2.55556 6.09796 2.55556 7.44731C2.55556 8.79666 3.02465 10.0614 3.81667 10.9695L11.4997 19.7783L19.1828 10.9695C19.5736 10.5216 19.8916 9.98052 20.1108 9.37387C20.33 8.7672 20.4444 8.11211 20.4444 7.44731C20.4444 6.7825 20.33 6.12741 20.1108 5.52074C19.8916 4.9141 19.5738 4.37322 19.183 3.92534C18.7926 3.47753 18.3382 3.13269 17.852 2.90169C17.3665 2.67104 16.8537 2.55556 16.3411 2.55556Z" fill="#5C4B51"/>
<path d="M14.8303 2.90169C15.3158 2.67104 15.8286 2.55556 16.3411 2.55556C16.8537 2.55556 17.3665 2.67104 17.852 2.90169C18.3382 3.13269 18.7926 3.47753 19.183 3.92534C19.5738 4.37322 19.8916 4.9141 20.1108 5.52074C20.33 6.12741 20.4444 6.7825 20.4444 7.44731C20.4444 8.11211 20.33 8.7672 20.1108 9.37387C19.8916 9.98052 19.5736 10.5216 19.1828 10.9695L11.4997 19.7783L3.81667 10.9695C3.02465 10.0614 2.55556 8.79666 2.55556 7.44731C2.55556 6.09796 3.02465 4.83318 3.81667 3.92511C4.60385 3.0226 5.631 2.55616 6.65835 2.55616C7.66118 2.55616 8.66381 3.00058 9.44324 3.8612L10.4274 5.38003C10.6629 5.74353 11.0666 5.96296 11.4997 5.96296C11.9329 5.96296 12.3365 5.74353 12.5721 5.38003L13.5563 3.8611C13.9337 3.44427 14.3674 3.1216 14.8303 2.90169Z" fill="#5C4B51"/>
</svg>
