<svg width="15" height="15" viewBox="0 0 15 15" fill="none" xmlns="http://www.w3.org/2000/svg">
<path d="M14.5914 13.4946L10.4349 9.5566C11.2993 8.64756 11.8263 7.44485 11.8263 6.12824C11.8257 3.30069 9.39734 1 6.41286 1C3.42838 1 1 3.30069 1 6.12824C1 8.95579 3.42838 11.2565 6.41286 11.2565C7.80311 11.2565 9.072 10.7572 10.0315 9.93825L14.188 13.8762C14.2438 13.9291 14.3168 13.955 14.3897 13.955C14.4626 13.955 14.5356 13.9286 14.5914 13.8762C14.7025 13.7709 14.7025 13.5998 14.5914 13.4946ZM1.56977 6.12824C1.56977 3.59813 3.74233 1.53981 6.41286 1.53981C9.0834 1.53981 11.2559 3.59813 11.2559 6.12824C11.2559 8.65835 9.0834 10.7167 6.41286 10.7167C3.74233 10.7167 1.56977 8.65835 1.56977 6.12824Z" fill="#5C4B51" stroke="#5C4B51" stroke-width="0.4"/>
</svg>
