<svg width="189" height="75" viewBox="0 0 189 75" fill="none" xmlns="http://www.w3.org/2000/svg">
<path d="M13.0351 47.282V34.3463L0 38.4133V27.3668H13.0351L10.9852 12.4631L20.3674 14.5098V27.3668L33.3237 23.2998V34.3463H20.3674L22.4173 49.3286L13.0351 47.282Z" fill="#FDFCF7"/>
<path d="M62.0218 15.0086H71.4565V16.0581L59.2623 31.0667L64.5184 39.227C66.3318 41.8509 67.4356 43.1103 69.9848 43.1103C70.7469 43.1103 72.7442 42.9004 74.1371 41.8771L77.1856 47.7546C74.2685 50.5884 70.5367 50.7983 68.8022 50.7983C63.4672 50.7983 60.4975 47.8858 58.0534 44.4223L50.984 33.0871V50.0374H42.4691V0H50.984V29.4662L61.9955 15.0086H62.0218Z" fill="#FDFCF7"/>
<path d="M133.137 15.0085H143.597V21.5157H133.137V39.8566C133.137 42.0082 134.031 43.6612 136.527 43.6612C138.603 43.6612 139.996 42.2181 139.996 40.0665C139.996 39.3056 139.865 37.9149 139.523 37.154H146.514C147.144 38.466 147.276 40.4863 147.276 41.0898C147.276 46.2064 143.754 50.772 136.186 50.772C130.378 50.772 124.622 48.2793 124.622 38.6759V21.5157H119.156V15.0085H125.043L126.567 5.66748H133.137V15.0085Z" fill="#FDFCF7"/>
<path d="M188.273 15.009V50.0115H179.759V44.7638C177.262 48.5684 172.899 50.7724 167.775 50.7724C157.394 50.7724 150.587 42.6122 150.587 32.379C150.587 22.1459 157.105 14.248 167.827 14.248C172.531 14.248 176.894 16.1897 179.732 20.2043V15.009H188.247H188.273ZM169.509 43.6355C175.317 43.6355 179.969 39.6997 179.969 32.7726C179.969 25.8456 175.606 21.3588 169.299 21.3588C162.992 21.3588 159.181 26.3966 159.181 32.4315C159.181 38.4664 163.123 43.6355 169.509 43.6355Z" fill="#FDFCF7"/>
<path d="M96.9488 14.248C86.8308 14.248 77.9742 22.4083 77.9742 32.5102C77.9742 42.6122 86.8308 50.7724 96.9488 50.7724C107.067 50.7724 116.002 42.6122 116.002 32.5102C116.002 22.4083 107.198 14.248 96.9488 14.248ZM93.9265 20.4404C94.5572 20.2567 95.6347 20.2567 95.9501 20.6241C96.7122 21.5424 96.2392 23.0905 95.8187 24.0614C95.7661 24.1663 95.7136 24.2975 95.6347 24.4549C94.82 26.0293 92.4285 29.7552 91.1145 27.21C89.8793 24.7698 91.2985 21.2538 93.9265 20.4404ZM85.0174 30.621C84.9386 29.6502 84.9386 28.6007 85.2539 27.6561C85.3065 27.5249 85.3328 27.4199 85.3853 27.315C85.8058 26.3704 86.8833 25.1109 88.0659 25.3208C88.3813 25.3733 88.6178 26.1867 88.7755 26.6852C89.0646 27.6561 89.2486 28.6794 89.5639 29.6502C89.9844 31.0146 89.4325 31.7231 88.1185 32.0117C86.2789 32.4315 85.1488 32.0117 85.0174 30.621ZM99.8922 42.5335C99.8922 42.5335 99.8922 42.6122 99.8922 42.6384C99.4454 44.5538 96.8962 45.236 95.5033 43.9241C93.7951 42.2973 92.0343 41.4052 89.5639 41.4052C88.4076 41.4052 86.9096 39.9358 86.6994 38.8338C86.6205 38.414 86.6994 37.9679 86.8308 37.5481C87.6455 35.2653 90.2209 33.4811 92.008 31.9592C94.1367 30.175 97.6058 31.4082 98.2628 34.137C98.8672 36.6035 99.6031 39.0699 99.8922 41.5889C99.9184 41.9037 99.9447 42.2186 99.8922 42.5335ZM99.1563 30.4111C97.632 29.6765 97.2641 28.2333 97.632 26.7639C97.9211 25.6357 98.4993 24.5337 99.1563 23.5366C100.286 21.8311 101.784 21.4112 103.282 22.2246C104.728 22.9856 105.306 24.5861 104.754 26.3704C104.649 26.7115 104.518 27.0263 104.281 27.6036C103.939 28.1284 103.493 28.9418 102.888 29.624C101.863 30.7522 100.523 31.0933 99.13 30.4111H99.1563ZM109.274 33.5336C108.591 34.7405 108.039 36.4461 106.962 37.3644C106.541 37.7318 106.016 37.9417 105.464 37.9417C104.938 37.9417 104.465 37.7055 104.044 37.3907C103.02 36.6822 101.311 35.3965 101.863 33.9271C102.494 32.2479 106.252 30.5423 108.092 31.1458C109.379 31.5656 109.747 32.5627 109.274 33.5336Z" fill="#FDFCF7"/>
<path d="M2.52293 64.8359L1.70823 74.1507H0L1.10378 62.3433H2.99598L6.93805 71.763L10.8801 62.3433H12.7723L13.8761 74.1507H12.1679L11.3532 64.8359L7.5425 73.9933H6.28104L2.47037 64.8359H2.52293Z" fill="#FDFCF7"/>
<path d="M17.897 71.7105L16.9772 74.1507H15.2427L19.7892 62.3433H21.7602L26.333 74.1507H24.6248L23.705 71.7105H17.9233H17.897ZM23.1794 70.3461L20.7879 63.9701L18.4226 70.3461H23.1794Z" fill="#FDFCF7"/>
<path d="M34.0333 62.3433H35.8467V62.5269L31.4841 68.4569L33.6917 71.4481C34.2173 72.1828 34.848 72.865 35.5576 72.865C35.8204 72.865 36.2934 72.865 36.819 72.419L37.4235 73.5997C36.9504 74.1245 35.9255 74.3344 35.3736 74.3344C33.6391 74.3344 32.693 72.8913 32.1148 72.0778L29.8284 68.903V74.1507H28.1465V62.3433H29.8284V68.1158L34.007 62.3433H34.0333Z" fill="#FDFCF7"/>
<path d="M40.6033 74.1507H38.9214V62.3433H40.6033V74.1507Z" fill="#FDFCF7"/>
<path d="M45.623 65.4132V74.1507H43.941V62.3433H45.2025L51.6675 71.0545V62.3433H53.3757V74.1507H52.1143L45.623 65.4132Z" fill="#FDFCF7"/>
<path d="M57.5016 68.2472C57.5016 70.53 59.0522 72.8127 62.1532 72.8127C63.2307 72.8127 64.1243 72.5503 64.939 72.0256V69.6116H61.6014V68.2472H66.4633V72.6815C64.9653 74.046 63.2308 74.3346 62.0481 74.3346C58.3951 74.3346 55.7671 71.6057 55.7671 68.2734C55.7671 64.9411 58.5265 62.1335 61.9167 62.1335C63.5724 62.1335 64.939 62.4746 66.2267 63.4455L65.5697 64.7574C63.8878 63.6816 62.9417 63.6816 61.9167 63.6816C59.4726 63.6816 57.5016 65.702 57.5016 68.2734V68.2472Z" fill="#FDFCF7"/>
<path d="M73.5591 74.1507V62.3433H78.2896C80.5497 62.3433 81.8637 64.075 81.8637 66.0692C81.8637 68.0633 80.5497 69.6901 78.2896 69.6901H75.241V74.1507H73.5591ZM77.9479 68.3257C79.2882 68.3257 80.1029 67.3811 80.1029 66.0429C80.1029 64.7048 79.2619 63.7339 77.9479 63.7339H75.2673V68.3519H77.9479V68.3257Z" fill="#FDFCF7"/>
<path d="M91.6139 74.1507H84.0977V62.3433H91.6139V63.7339H85.7796V67.696H90.878V69.0866H85.7796V72.8125H91.6139V74.2032V74.1507Z" fill="#FDFCF7"/>
<path d="M102.31 62.3433V63.7339H98.3679V74.177H96.686V63.7339H92.7439V62.3433H102.31Z" fill="#FDFCF7"/>
<path d="M104.754 70.9764C104.964 71.9472 106.015 72.8393 107.487 72.8393C109.038 72.8393 109.984 72.0522 109.984 71.0289C109.984 70.1105 109.195 69.5333 108.249 69.1659L106.462 68.5624C104.123 67.8015 103.729 66.4371 103.729 65.4138C103.729 63.3934 105.516 62.1602 107.54 62.1602C109.642 62.1602 111.061 63.3147 111.403 64.9677L109.879 65.4138C109.59 64.233 108.749 63.682 107.54 63.682C106.41 63.682 105.437 64.3117 105.437 65.3875C105.437 65.8861 105.595 66.542 106.988 67.0668L108.775 67.749C110.72 68.3525 111.639 69.6644 111.639 70.9239C111.639 73.023 109.984 74.3612 107.513 74.3612C105.043 74.3612 103.545 73.0492 103.151 71.3962L104.728 71.0026L104.754 70.9764Z" fill="#FDFCF7"/>
<path d="M120.233 69.1915V74.1243H118.551V62.3169H120.233V67.827H125.752V62.3169H127.434V74.1243H125.752V69.1915H120.233Z" fill="#FDFCF7"/>
<path d="M131.981 71.7105L131.061 74.1507H129.326L133.873 62.3433H135.844L140.417 74.1507H138.708L137.789 71.7105H132.007H131.981ZM137.263 70.3461L134.871 63.9701L132.506 70.3461H137.263Z" fill="#FDFCF7"/>
<path d="M142.256 74.1507V62.3433H146.987C149.247 62.3433 150.561 64.075 150.561 66.0692C150.561 68.0633 149.247 69.6901 146.987 69.6901H143.938V74.1507H142.256ZM146.645 68.3257C147.985 68.3257 148.8 67.3811 148.8 66.0429C148.8 64.7048 147.959 63.7339 146.645 63.7339H143.965V68.3519H146.645V68.3257Z" fill="#FDFCF7"/>
<path d="M152.795 74.1507V62.3433H157.525C159.785 62.3433 161.099 64.075 161.099 66.0692C161.099 68.0633 159.785 69.6901 157.525 69.6901H154.477V74.1507H152.795ZM157.184 68.3257C158.524 68.3257 159.339 67.3811 159.339 66.0429C159.339 64.7048 158.498 63.7339 157.184 63.7339H154.503V68.3519H157.184V68.3257Z" fill="#FDFCF7"/>
<path d="M165.041 74.1507H163.359V62.3433H165.041V74.1507Z" fill="#FDFCF7"/>
<path d="M175.869 74.1507H168.353V62.3433H175.869V63.7339H170.035V67.696H175.133V69.0866H170.035V72.8125H175.869V74.2032V74.1507Z" fill="#FDFCF7"/>
<path d="M178.339 74.1507V62.3433H183.28C185.54 62.3433 186.854 64.075 186.854 66.0692C186.854 67.8272 185.829 69.2965 184.069 69.6376C184.2 70.9233 184.988 72.9175 186.329 72.9175C186.933 72.9175 187.406 72.6813 187.722 72.3665L188.326 73.521C187.774 74.0982 187.012 74.3606 186.25 74.3606C183.464 74.3606 182.623 71.1333 182.492 69.6901H180.074V74.1507H178.392H178.339ZM182.912 68.3257C184.253 68.3257 185.067 67.3811 185.067 66.0429C185.067 64.7048 184.226 63.7339 182.912 63.7339H180.021V68.3519H182.912V68.3257Z" fill="#FDFCF7"/>
</svg>
