<svg width="180" height="71" viewBox="0 0 180 71" fill="none" xmlns="http://www.w3.org/2000/svg">
<path d="M12.446 45.1454V32.7943L0 36.6775V26.1302H12.446L10.4888 11.9001L19.4469 13.8543V26.1302L31.8176 22.247V32.7943H19.4469L21.4041 47.0995L12.446 45.1454Z" fill="#8EBEB2"/>
<path d="M59.2189 14.3303H68.2272V15.3324L56.5841 29.6627L61.6027 37.4541C63.3341 39.9594 64.388 41.162 66.822 41.162C67.5497 41.162 69.4567 40.9615 70.7866 39.9845L73.6974 45.5963C70.9121 48.302 67.3489 48.5025 65.6928 48.5025C60.599 48.5025 57.7635 45.7216 55.4299 42.4146L48.6799 31.5917V47.7759H40.5499V0H48.6799V28.1344L59.1938 14.3303H59.2189Z" fill="#8EBEB2"/>
<path d="M127.12 14.3302H137.107V20.5433H127.12V38.0553C127.12 40.1097 127.973 41.688 130.357 41.688C132.339 41.688 133.669 40.3101 133.669 38.2558C133.669 37.5292 133.544 36.2014 133.217 35.4749H139.892C140.494 36.7275 140.62 38.6566 140.62 39.2328C140.62 44.1181 137.257 48.4774 130.031 48.4774C124.485 48.4774 118.99 46.0973 118.99 36.928V20.5433H113.77V14.3302H119.391L120.847 5.41138H127.12V14.3302Z" fill="#8EBEB2"/>
<path d="M179.764 14.3303V47.7509H171.634V42.7403C169.251 46.373 165.085 48.4774 160.192 48.4774C150.28 48.4774 143.781 40.686 143.781 30.9153C143.781 21.1447 150.004 13.6038 160.242 13.6038C164.734 13.6038 168.899 15.4577 171.609 19.2908V14.3303H179.739H179.764ZM161.848 41.663C167.394 41.663 171.835 37.9051 171.835 31.2911C171.835 24.6772 167.67 20.3931 161.647 20.3931C155.625 20.3931 151.987 25.2033 151.987 30.9654C151.987 36.7276 155.751 41.663 161.848 41.663Z" fill="#8EBEB2"/>
<path d="M92.5672 13.6038C82.9064 13.6038 74.4502 21.3952 74.4502 31.0406C74.4502 40.686 82.9064 48.4774 92.5672 48.4774C102.228 48.4774 110.759 40.686 110.759 31.0406C110.759 21.3952 102.353 13.6038 92.5672 13.6038ZM89.6815 19.5162C90.2837 19.3409 91.3125 19.3409 91.6136 19.6916C92.3413 20.5685 91.8896 22.0466 91.4882 22.9736C91.438 23.0738 91.3878 23.199 91.3125 23.3493C90.5346 24.8525 88.2512 28.41 86.9966 25.9799C85.8172 23.65 87.1722 20.2929 89.6815 19.5162ZM81.175 29.2368C81.0998 28.3098 81.0998 27.3077 81.4009 26.4058C81.4511 26.2805 81.4762 26.1803 81.5264 26.0801C81.9278 25.1782 82.9566 23.9757 84.0858 24.1761C84.3869 24.2262 84.6128 25.0028 84.7633 25.4788C85.0393 26.4058 85.215 27.3829 85.5161 28.3098C85.9176 29.6126 85.3906 30.289 84.136 30.5646C82.3795 30.9654 81.3005 30.5646 81.175 29.2368ZM95.3775 40.6108C95.3775 40.6108 95.3775 40.686 95.3775 40.711C94.951 42.5399 92.517 43.1913 91.1871 41.9386C89.556 40.3853 87.8748 39.5335 85.5161 39.5335C84.412 39.5335 82.9817 38.1306 82.781 37.0784C82.7057 36.6775 82.781 36.2516 82.9065 35.8508C83.6843 33.6712 86.1434 31.9676 87.8497 30.5145C89.8822 28.8109 93.1945 29.9884 93.8218 32.5939C94.3989 34.9489 95.1015 37.3038 95.3775 39.7089C95.4026 40.0095 95.4277 40.3102 95.3775 40.6108ZM94.6749 29.0364C93.2196 28.3349 92.8683 26.957 93.2196 25.554C93.4956 24.4767 94.0476 23.4245 94.6749 22.4725C95.7539 20.8441 97.1842 20.4432 98.6145 21.2198C99.9946 21.9464 100.547 23.4746 100.02 25.1782C99.9193 25.5039 99.7939 25.8045 99.568 26.3557C99.2418 26.8568 98.8152 27.6334 98.2381 28.2848C97.2595 29.362 95.9798 29.6877 94.6499 29.0364H94.6749ZM104.336 32.0177C103.683 33.1701 103.156 34.7985 102.127 35.6754C101.726 36.0261 101.224 36.2265 100.697 36.2265C100.195 36.2265 99.7437 36.0011 99.3422 35.7004C98.3636 35.024 96.7325 33.7964 97.2595 32.3935C97.8617 30.7901 101.45 29.1616 103.206 29.7378C104.436 30.1387 104.787 31.0907 104.336 32.0177Z" fill="#8EBEB2"/>
<path d="M2.4089 61.9059L1.63103 70.7997H0L1.05389 59.5259H2.86057L6.62448 68.5199L10.3884 59.5259H12.1951L13.249 70.7997H11.6179L10.8401 61.9059L7.20162 70.6494H5.99717L2.35872 61.9059H2.4089Z" fill="#8EBEB2"/>
<path d="M17.0882 68.4698L16.21 70.7997H14.5538L18.8949 59.5259H20.7768L25.143 70.7997H23.5119L22.6337 68.4698H17.1133H17.0882ZM22.1318 67.167L19.8484 61.0792L17.5901 67.167H22.1318Z" fill="#8EBEB2"/>
<path d="M32.495 59.5259H34.2264V59.7012L30.061 65.3632L32.1688 68.2192C32.6707 68.9207 33.2729 69.5721 33.9504 69.5721C34.2013 69.5721 34.653 69.5721 35.1549 69.1462L35.732 70.2736C35.2803 70.7746 34.3017 70.9751 33.7748 70.9751C32.1186 70.9751 31.2153 69.5972 30.6633 68.8205L28.4802 65.7891V70.7997H26.8743V59.5259H28.4802V65.0375L32.4699 59.5259H32.495Z" fill="#8EBEB2"/>
<path d="M38.7682 70.7997H37.1623V59.5259H38.7682V70.7997Z" fill="#8EBEB2"/>
<path d="M43.561 62.4571V70.7997H41.955V59.5259H43.1595L49.3323 67.8434V59.5259H50.9633V70.7997H49.7589L43.561 62.4571Z" fill="#8EBEB2"/>
<path d="M54.903 65.1626C54.903 67.3423 56.3835 69.5219 59.3444 69.5219C60.3732 69.5219 61.2264 69.2713 62.0043 68.7703V66.4654H58.8175V65.1626H63.4596V69.3966C62.0293 70.6993 60.3732 70.9749 59.2441 70.9749C55.7562 70.9749 53.2469 68.3694 53.2469 65.1877C53.2469 62.006 55.8816 59.3253 59.1186 59.3253C60.6994 59.3253 62.0043 59.651 63.2338 60.578L62.6065 61.8306C61.0005 60.8034 60.0972 60.8034 59.1186 60.8034C56.785 60.8034 54.903 62.7325 54.903 65.1877V65.1626Z" fill="#8EBEB2"/>
<path d="M70.2346 70.7997V59.5259H74.7513C76.9092 59.5259 78.1639 61.1794 78.1639 63.0834C78.1639 64.9874 76.9092 66.5407 74.7513 66.5407H71.8405V70.7997H70.2346ZM74.425 65.2379C75.7048 65.2379 76.4826 64.336 76.4826 63.0583C76.4826 61.7806 75.6797 60.8537 74.425 60.8537H71.8656V65.263H74.425V65.2379Z" fill="#8EBEB2"/>
<path d="M87.4733 70.7997H80.2968V59.5259H87.4733V60.8537H81.9027V64.6367H86.7707V65.9645H81.9027V69.522H87.4733V70.8498V70.7997Z" fill="#8EBEB2"/>
<path d="M97.686 59.5259V60.8537H93.9221V70.8247H92.3162V60.8537H88.5522V59.5259H97.686Z" fill="#8EBEB2"/>
<path d="M100.02 67.7681C100.22 68.6951 101.224 69.5469 102.629 69.5469C104.11 69.5469 105.013 68.7953 105.013 67.8182C105.013 66.9414 104.26 66.3902 103.357 66.0395L101.651 65.4633C99.4173 64.7367 99.0409 63.434 99.0409 62.4569C99.0409 60.5278 100.747 59.3503 102.679 59.3503C104.687 59.3503 106.042 60.4527 106.368 62.031L104.913 62.4569C104.637 61.3295 103.834 60.8034 102.679 60.8034C101.6 60.8034 100.672 61.4047 100.672 62.4319C100.672 62.9079 100.823 63.5342 102.152 64.0352L103.859 64.6866C105.716 65.2628 106.594 66.5155 106.594 67.718C106.594 69.7223 105.013 71 102.654 71C100.296 71 98.8653 69.7473 98.4889 68.169L99.9945 67.7932L100.02 67.7681Z" fill="#8EBEB2"/>
<path d="M114.799 66.0647V70.7747H113.193V59.5009H114.799V64.762H120.069V59.5009H121.675V70.7747H120.069V66.0647H114.799Z" fill="#8EBEB2"/>
<path d="M126.016 68.4698L125.137 70.7997H123.481L127.822 59.5259H129.704L134.07 70.7997H132.439L131.561 68.4698H126.041H126.016ZM131.059 67.167L128.776 61.0792L126.518 67.167H131.059Z" fill="#8EBEB2"/>
<path d="M135.827 70.7997V59.5259H140.344C142.502 59.5259 143.756 61.1794 143.756 63.0834C143.756 64.9874 142.502 66.5407 140.344 66.5407H137.433V70.7997H135.827ZM140.018 65.2379C141.297 65.2379 142.075 64.336 142.075 63.0583C142.075 61.7806 141.272 60.8537 140.018 60.8537H137.458V65.263H140.018V65.2379Z" fill="#8EBEB2"/>
<path d="M145.889 70.7997V59.5259H150.406C152.564 59.5259 153.819 61.1794 153.819 63.0834C153.819 64.9874 152.564 66.5407 150.406 66.5407H147.495V70.7997H145.889ZM150.08 65.2379C151.359 65.2379 152.137 64.336 152.137 63.0583C152.137 61.7806 151.334 60.8537 150.08 60.8537H147.52V65.263H150.08V65.2379Z" fill="#8EBEB2"/>
<path d="M157.582 70.7997H155.977V59.5259H157.582V70.7997Z" fill="#8EBEB2"/>
<path d="M167.92 70.7997H160.744V59.5259H167.92V60.8537H162.35V64.6367H167.218V65.9645H162.35V69.522H167.92V70.8498V70.7997Z" fill="#8EBEB2"/>
<path d="M170.279 70.7997V59.5259H174.997C177.155 59.5259 178.409 61.1794 178.409 63.0834C178.409 64.7619 177.431 66.1649 175.75 66.4906C175.875 67.7182 176.628 69.6222 177.907 69.6222C178.485 69.6222 178.936 69.3967 179.237 69.0961L179.815 70.1984C179.288 70.7496 178.56 71.0001 177.832 71.0001C175.172 71.0001 174.369 67.9186 174.244 66.5407H171.935V70.7997H170.329H170.279ZM174.645 65.2379C175.925 65.2379 176.703 64.336 176.703 63.0583C176.703 61.7806 175.9 60.8537 174.645 60.8537H171.885V65.263H174.645V65.2379Z" fill="#8EBEB2"/>
</svg>
