<svg width="22" height="21" viewBox="0 0 22 21" fill="none" xmlns="http://www.w3.org/2000/svg">
<path d="M20.525 4.895C20.125 4.43583 19.5417 4.16667 18.9167 4.16667H6.40833L6.19167 2.71C6.05 1.73625 5.16667 1 4.125 1H3.075C2.84167 1 2.65833 1.17417 2.65833 1.39583C2.65833 1.6175 2.84167 1.79167 3.075 1.79167H4.125C4.75 1.79167 5.275 2.235 5.36667 2.81292L6.85 12.97C7.10833 14.7196 8.7 16.0417 10.5667 16.0417H17.25C17.4833 16.0417 17.6667 15.8675 17.6667 15.6458C17.6667 15.4242 17.4833 15.25 17.25 15.25H10.5667C9.125 15.25 7.88333 14.2288 7.68333 12.875H16.55C18.3333 12.875 19.875 11.6717 20.225 10.0092L20.9583 6.53375C21.0833 5.94792 20.925 5.35417 20.525 4.88708V4.895ZM20.1417 6.38333L19.4083 9.85875C19.1333 11.1492 17.9333 12.0833 16.55 12.0833H7.56667L6.525 4.95833H18.9167C19.2917 4.95833 19.6417 5.11667 19.8833 5.39375C20.125 5.67083 20.2167 6.02708 20.1417 6.38333ZM8.5 16.8413C7.58333 16.8413 6.83333 17.5538 6.83333 18.4246C6.83333 19.2954 7.58333 20.0079 8.5 20.0079C9.41667 20.0079 10.1667 19.2954 10.1667 18.4246C10.1667 17.5538 9.41667 16.8413 8.5 16.8413ZM8.5 19.2163C8.04167 19.2163 7.66667 18.86 7.66667 18.4246C7.66667 17.9892 8.04167 17.6329 8.5 17.6329C8.95833 17.6329 9.33333 17.9892 9.33333 18.4246C9.33333 18.86 8.95833 19.2163 8.5 19.2163ZM16 16.8413C15.0833 16.8413 14.3333 17.5538 14.3333 18.4246C14.3333 19.2954 15.0833 20.0079 16 20.0079C16.9167 20.0079 17.6667 19.2954 17.6667 18.4246C17.6667 17.5538 16.9167 16.8413 16 16.8413ZM16 19.2163C15.5417 19.2163 15.1667 18.86 15.1667 18.4246C15.1667 17.9892 15.5417 17.6329 16 17.6329C16.4583 17.6329 16.8333 17.9892 16.8333 18.4246C16.8333 18.86 16.4583 19.2163 16 19.2163ZM1 5.35417C1 5.1325 1.18333 4.95833 1.41667 4.95833H3.53333C3.76667 4.95833 3.95 5.1325 3.95 5.35417C3.95 5.57583 3.76667 5.75 3.53333 5.75H1.41667C1.18333 5.75 1 5.57583 1 5.35417ZM1 8.52083C1 8.29917 1.18333 8.125 1.41667 8.125H3.91667C4.15 8.125 4.33333 8.29917 4.33333 8.52083C4.33333 8.7425 4.15 8.91667 3.91667 8.91667H1.41667C1.18333 8.91667 1 8.7425 1 8.52083ZM5.16667 11.6875C5.16667 11.9092 4.98333 12.0833 4.75 12.0833H1.41667C1.18333 12.0833 1 11.9092 1 11.6875C1 11.4658 1.18333 11.2917 1.41667 11.2917H4.75C4.98333 11.2917 5.16667 11.4658 5.16667 11.6875Z" fill="#5C4B51" stroke="#5C4B51"/>
</svg>
