<svg width="21" height="20" viewBox="0 0 21 20" fill="none" xmlns="http://www.w3.org/2000/svg">
<path d="M10.5 1C5.26154 1 1 5.03725 1 10C1 14.9627 5.26154 19 10.5 19C15.7385 19 20 14.9627 20 10C20 5.03725 15.7385 1 10.5 1ZM6.54167 17.3478V16.75C6.54167 14.6823 8.31737 13 10.5 13C12.6826 13 14.4583 14.6823 14.4583 16.75V17.3478C13.27 17.9245 11.9242 18.25 10.5 18.25C9.07579 18.25 7.72996 17.9245 6.54167 17.3478ZM15.25 16.9113V16.75C15.25 14.2682 13.1196 12.25 10.5 12.25C7.88037 12.25 5.75 14.2682 5.75 16.75V16.9113C3.36867 15.4375 1.79167 12.8898 1.79167 10C1.79167 5.45125 5.69854 1.75 10.5 1.75C15.3015 1.75 19.2083 5.45125 19.2083 10C19.2083 12.8898 17.6313 15.4375 15.25 16.9113ZM10.5 4.75C8.75358 4.75 7.33333 6.0955 7.33333 7.75C7.33333 9.4045 8.75358 10.75 10.5 10.75C12.2464 10.75 13.6667 9.4045 13.6667 7.75C13.6667 6.0955 12.2464 4.75 10.5 4.75ZM10.5 10C9.19058 10 8.125 8.9905 8.125 7.75C8.125 6.5095 9.19058 5.5 10.5 5.5C11.8094 5.5 12.875 6.5095 12.875 7.75C12.875 8.9905 11.8094 10 10.5 10Z" fill="#5C4B51" stroke="#5C4B51"/>
</svg>
